<svg xmlns="http://www.w3.org/2000/svg" width="640" height="360" viewBox="0 0 640 360">
<defs>
  <marker id="arr" markerWidth="8" markerHeight="8" refX="6" refY="3" orient="auto"><path d="M0,0 L0,6 L7,3 z" fill="#58ffae"/></marker>
  <style>.bg{fill:#0b1520} .line{stroke:#e9f4f8;stroke-width:10;stroke-linecap:round;stroke-linejoin:round;fill:none} .ghost{stroke:#648092;stroke-width:8;stroke-linecap:round;stroke-linejoin:round;fill:none;opacity:.65} .joint{fill:#e9f4f8} .arrow{stroke:#58ffae;stroke-width:7;fill:none;marker-end:url(#arr)} .txt{font:700 25px -apple-system,BlinkMacSystemFont,Segoe UI,Arial;fill:#e9f4f8} .small{font:18px -apple-system,BlinkMacSystemFont,Segoe UI,Arial;fill:#9db5c4}</style>
</defs>
<rect width="640" height="360" rx="26" class="bg"/><text x="28" y="42" class="txt">Hollow hold</text><text x="110" y="82" class="small">СТАРТ</text><text x="430" y="82" class="small">ДВИЖЕНИЕ</text><circle cx="130" cy="245" r="18" class="joint"/><path d="M150 245 L280 245" class="line"/><path d="M200 240 L165 180" class="line"/><path d="M275 245 L330 205" class="line"/><circle cx="435" cy="225" r="18" class="joint"/><path d="M455 225 L540 250" class="line"/><path d="M475 225 L420 170" class="line"/><path d="M535 250 L600 215" class="line"/><path d="M300 180 C335 150 360 150 395 180" class="arrow"/><path d="M40 300 H600" class="ghost"/><text x="28" y="336" class="small">Схема движения · работай плавно и без боли</text></svg>