<svg xmlns="http://www.w3.org/2000/svg" width="640" height="360" viewBox="0 0 640 360">
<defs>
  <marker id="arr" markerWidth="8" markerHeight="8" refX="6" refY="3" orient="auto"><path d="M0,0 L0,6 L7,3 z" fill="#58ffae"/></marker>
  <style>.bg{fill:#0b1520} .line{stroke:#e9f4f8;stroke-width:10;stroke-linecap:round;stroke-linejoin:round;fill:none} .ghost{stroke:#648092;stroke-width:8;stroke-linecap:round;stroke-linejoin:round;fill:none;opacity:.65} .joint{fill:#e9f4f8} .arrow{stroke:#58ffae;stroke-width:7;fill:none;marker-end:url(#arr)} .txt{font:700 25px -apple-system,BlinkMacSystemFont,Segoe UI,Arial;fill:#e9f4f8} .small{font:18px -apple-system,BlinkMacSystemFont,Segoe UI,Arial;fill:#9db5c4}</style>
</defs>
<rect width="640" height="360" rx="26" class="bg"/><text x="28" y="42" class="txt">Повороты грудного отдела</text><circle cx="180" cy="105" r="18.0" class="joint"/><path d="M180 128.0 L180 198.0" class="line"/><path d="M180 149.25 L127.5 149.25" class="line"/><path d="M180 149.25 L232.5 149.25" class="line"/><path d="M180 198.0 L161.25 265.5" class="line"/><path d="M180 198.0 L198.75 265.5" class="line"/><path d="M300 150 C345 120 380 120 420 150" class="arrow"/><circle cx="470" cy="105" r="18.0" class="joint"/><path d="M470 128.0 L470 198.0" class="line"/><path d="M470 149.25 L417.5 149.25" class="line"/><path d="M470 149.25 L522.5 149.25" class="line"/><path d="M470 198.0 L451.25 265.5" class="line"/><path d="M470 198.0 L488.75 265.5" class="line"/><path d="M40 300 H600" class="ghost"/><text x="28" y="336" class="small">Схема движения · работай плавно и без боли</text></svg>